<?xml version="1.0" encoding="iso-8859-1"?>
<!-- Generator: Adobe Illustrator 19.0.0, SVG Export Plug-In . SVG Version: 6.00 Build 0)  -->
<svg version="1.1" id="Layer_1" xmlns="http://www.w3.org/2000/svg" xmlns:xlink="http://www.w3.org/1999/xlink" x="0px" y="0px"
	 viewBox="0 0 460.327 460.327" style="enable-background:new 0 0 460.327 460.327;" xml:space="preserve">
<g>
	<path style="fill:#FEE187;" d="M230.337,0c-127.025,0-230,102.975-230,230c0,115.601,85.285,211.283,196.369,227.559
		l261.349-260.09C442.251,85.849,346.32,0,230.337,0z"/>
	<path style="fill:#FFC61B;" d="M392.638,392.968c53.773-53.773,75.339-127.546,64.728-197.373L361.29,99.519L99.66,361.148
		l96.723,96.723C265.879,468.083,339.152,446.454,392.638,392.968z"/>
	<path style="fill:#D48B07;" d="M415.337,230c0,102.176-82.824,185-185,185l-129.5-185l129.5-185
		C332.512,45,415.337,127.825,415.337,230z"/>
	<path style="fill:#E0A300;" d="M45.337,230c0,102.175,82.825,185,185,185V45C128.161,45,45.337,127.825,45.337,230z"/>
	<path style="fill:#FEE187;" d="M230.337,385l-96.875-155l96.875-155c85.468,0,155,69.532,155,155S315.804,385,230.337,385z"/>
	<path style="fill:#FFEDB5;" d="M75.337,230c0,85.468,69.532,155,155,155V75C144.869,75,75.337,144.532,75.337,230z"/>
	<path style="fill:#FFEDB5;" d="M230.337,365l-84.375-135l84.375-135c74.44,0,135,60.56,135,135S304.776,365,230.337,365z"/>
	<path style="fill:#FFFFFF;" d="M95.337,230c0,74.44,60.56,135,135,135V95C155.897,95,95.337,155.56,95.337,230z"/>
	<path style="fill:#FFC61B;" d="M287.337,191v-10c0-31.43-25.57-57-57-57s-57,25.57-57,57v18.97h-20.185v20h20.185v20.061h-20.185
		v20h20.185V279c0,31.43,25.57,57,57,57s57-25.57,57-57v-10h-20v10c0,20.402-16.598,37-37,37s-37-16.598-37-37v-18.97h58.698v-20
		h-58.698v-20.06h58.698v-20h-58.698V181c0-20.402,16.598-37,37-37s37,16.598,37,37v10H287.337z"/>
</g>
<g>
</g>
<g>
</g>
<g>
</g>
<g>
</g>
<g>
</g>
<g>
</g>
<g>
</g>
<g>
</g>
<g>
</g>
<g>
</g>
<g>
</g>
<g>
</g>
<g>
</g>
<g>
</g>
<g>
</g>
</svg>
