<svg id="svg" version="1.1" xmlns="http://www.w3.org/2000/svg" xmlns:xlink="http://www.w3.org/1999/xlink" width="400" height="420.0860832137733" viewBox="0, 0, 400,420.0860832137733"><g id="svgg"><path id="path0" d="M144.300 107.681 C 143.475 107.900,142.800 108.222,142.800 108.396 C 142.800 108.571,142.335 108.830,141.766 108.973 C 141.197 109.116,140.522 109.408,140.266 109.624 C 138.320 111.258,137.811 111.600,137.326 111.600 C 137.023 111.600,136.671 111.870,136.545 112.200 C 136.418 112.530,136.150 112.800,135.948 112.800 C 135.746 112.800,134.273 113.666,132.675 114.725 C 131.076 115.784,129.460 116.768,129.084 116.912 C 128.708 117.057,128.400 117.361,128.400 117.587 C 128.400 117.814,128.158 118.000,127.861 118.000 C 127.565 118.000,126.890 118.357,126.361 118.793 C 124.828 120.057,124.664 120.168,123.400 120.800 C 122.740 121.130,121.981 121.580,121.714 121.800 C 121.447 122.020,120.959 122.425,120.631 122.700 C 120.302 122.975,119.859 123.200,119.645 123.200 C 119.432 123.200,119.010 123.447,118.709 123.748 C 118.408 124.050,117.630 124.592,116.980 124.953 C 114.920 126.100,114.010 126.712,112.439 128.007 C 111.910 128.443,111.244 128.800,110.959 128.800 C 110.673 128.800,110.296 129.029,110.120 129.308 C 109.944 129.588,109.350 130.037,108.800 130.306 C 107.716 130.835,106.320 131.680,106.000 132.000 C 105.522 132.478,103.340 133.876,102.700 134.114 C 102.315 134.258,102.000 134.561,102.000 134.787 C 102.000 135.014,101.758 135.200,101.461 135.200 C 101.165 135.200,100.490 135.557,99.961 135.993 C 98.333 137.335,97.335 137.974,95.100 139.103 C 94.495 139.409,94.000 139.822,94.000 140.022 C 94.000 140.221,93.550 140.498,93.000 140.636 C 91.977 140.893,91.767 141.414,92.330 142.301 C 92.505 142.576,94.176 143.136,96.044 143.544 C 103.705 145.218,105.447 150.232,100.411 156.115 C 97.331 159.713,90.800 168.159,90.800 168.544 C 90.800 168.804,91.314 169.644,91.942 170.409 C 93.401 172.187,94.400 174.131,94.400 175.193 C 94.400 175.651,94.652 176.122,94.961 176.240 C 95.269 176.359,95.619 176.828,95.738 177.283 C 95.993 178.260,99.038 178.110,99.788 177.085 C 100.016 176.772,100.562 176.402,101.002 176.263 C 101.441 176.123,102.287 175.557,102.883 175.004 C 103.478 174.452,104.144 174.000,104.363 174.000 C 104.581 174.000,104.904 173.764,105.080 173.477 C 105.256 173.189,105.985 172.717,106.700 172.428 C 107.415 172.139,108.000 171.745,108.000 171.551 C 108.000 171.358,108.242 171.200,108.539 171.200 C 109.013 171.200,109.555 170.834,111.483 169.207 C 111.749 168.983,112.073 168.800,112.203 168.800 C 112.333 168.800,113.523 168.080,114.848 167.200 C 116.173 166.320,117.424 165.600,117.628 165.600 C 117.833 165.600,118.000 165.433,118.000 165.229 C 118.000 165.025,118.495 164.609,119.100 164.303 C 121.335 163.174,122.333 162.535,123.961 161.193 C 124.490 160.757,125.146 160.400,125.418 160.400 C 125.691 160.400,126.018 160.130,126.145 159.800 C 126.271 159.470,126.623 159.200,126.926 159.200 C 127.410 159.200,127.846 158.908,129.831 157.256 C 130.068 157.059,130.653 156.774,131.131 156.622 C 131.609 156.470,132.000 156.196,132.000 156.012 C 132.000 155.829,132.540 155.490,133.200 155.260 C 133.860 155.030,134.400 154.652,134.400 154.421 C 134.400 154.189,134.657 154.000,134.971 154.000 C 135.286 154.000,135.781 153.768,136.071 153.484 C 136.362 153.201,138.310 151.896,140.400 150.585 C 144.005 148.324,144.560 147.949,145.714 147.000 C 145.981 146.780,146.740 146.330,147.400 146.001 C 148.060 145.671,148.690 145.301,148.800 145.180 C 148.910 145.058,149.720 144.525,150.600 143.996 C 151.480 143.466,152.411 142.756,152.668 142.417 C 153.229 141.679,158.931 141.609,174.519 142.148 L 184.437 142.491 183.815 143.346 C 183.472 143.815,183.018 144.605,182.806 145.100 C 182.594 145.595,182.235 146.000,182.010 146.000 C 181.784 146.000,181.600 146.230,181.600 146.511 C 181.600 146.792,181.240 147.330,180.800 147.707 C 180.360 148.084,180.000 148.655,180.000 148.976 C 180.000 149.297,179.775 149.704,179.500 149.880 C 178.865 150.286,177.200 152.647,177.200 153.141 C 177.200 153.346,176.930 153.618,176.600 153.745 C 176.270 153.871,176.000 154.236,176.000 154.554 C 176.000 154.873,175.865 155.193,175.700 155.267 C 175.535 155.340,174.324 157.020,173.009 159.000 C 171.694 160.980,170.479 162.660,170.309 162.733 C 170.139 162.807,170.000 163.060,170.000 163.296 C 170.000 163.531,169.550 164.314,169.000 165.036 C 168.450 165.757,168.000 166.524,168.000 166.740 C 168.000 166.956,167.843 167.193,167.650 167.267 C 167.123 167.468,164.000 172.059,164.000 172.633 C 164.000 172.908,163.865 173.193,163.700 173.267 C 163.243 173.470,160.000 178.302,160.000 178.780 C 160.000 179.011,159.832 179.200,159.627 179.200 C 159.422 179.200,159.138 179.566,158.996 180.013 C 158.854 180.460,158.322 181.275,157.813 181.824 C 157.304 182.373,156.650 183.402,156.359 184.111 C 156.068 184.820,155.413 185.850,154.903 186.400 C 154.392 186.950,153.871 187.805,153.744 188.300 C 153.617 188.795,153.348 189.200,153.147 189.200 C 152.945 189.200,152.603 189.605,152.386 190.100 C 152.169 190.595,151.275 192.080,150.398 193.400 C 149.522 194.720,148.678 196.070,148.523 196.400 C 148.367 196.730,148.094 197.180,147.915 197.400 C 144.731 201.308,144.918 201.833,150.202 203.812 C 155.123 205.656,160.159 207.953,172.891 214.161 C 181.913 218.561,184.679 219.835,197.393 225.448 C 206.094 229.289,206.194 229.307,207.802 227.321 C 208.461 226.507,209.675 225.092,210.500 224.176 C 211.325 223.260,212.000 222.414,212.000 222.296 C 212.000 222.091,213.200 220.617,215.100 218.491 C 215.595 217.937,216.000 217.283,216.000 217.038 C 216.000 216.793,216.360 216.368,216.800 216.093 C 217.240 215.818,217.600 215.407,217.600 215.180 C 217.600 214.953,217.956 214.384,218.392 213.917 C 218.827 213.449,219.682 212.332,220.291 211.434 C 220.900 210.535,221.508 209.710,221.643 209.600 C 221.778 209.490,222.168 208.860,222.510 208.200 C 222.852 207.540,223.507 206.603,223.966 206.117 C 224.425 205.631,224.800 205.068,224.800 204.866 C 224.800 204.663,225.053 204.288,225.363 204.031 C 225.673 203.774,226.218 202.986,226.574 202.282 C 227.298 200.850,228.097 199.503,228.401 199.200 C 229.033 198.572,230.800 195.683,230.800 195.278 C 230.800 195.015,230.962 194.800,231.161 194.800 C 231.359 194.800,231.724 194.305,231.971 193.700 C 232.482 192.449,234.126 189.640,234.772 188.915 C 235.009 188.648,235.426 187.928,235.697 187.315 C 235.969 186.702,236.418 185.962,236.695 185.671 C 236.973 185.381,237.200 184.886,237.200 184.571 C 237.200 184.257,237.341 184.000,237.514 184.000 C 237.686 184.000,238.361 182.830,239.014 181.401 C 239.666 179.971,240.322 178.801,240.471 178.801 C 240.785 178.800,242.000 181.128,242.000 181.732 C 242.000 181.957,242.720 183.629,243.600 185.447 C 244.480 187.265,245.200 189.023,245.200 189.353 C 245.200 189.683,245.366 190.055,245.569 190.181 C 245.772 190.306,246.057 190.947,246.201 191.605 C 246.345 192.262,246.615 192.800,246.800 192.800 C 246.985 192.800,247.255 193.340,247.400 194.000 C 247.545 194.660,247.801 195.200,247.968 195.200 C 248.136 195.200,248.500 195.965,248.778 196.900 C 249.056 197.835,249.423 198.780,249.595 199.000 C 249.767 199.220,250.030 199.973,250.180 200.672 C 250.329 201.372,250.710 202.159,251.026 202.421 C 251.342 202.683,251.600 203.236,251.600 203.649 C 251.600 204.062,251.780 204.400,252.000 204.400 C 252.220 204.400,252.406 204.625,252.414 204.900 C 252.421 205.175,252.775 206.120,253.200 207.000 C 253.625 207.880,253.980 208.870,253.989 209.200 C 253.998 209.530,254.363 210.340,254.800 211.000 C 255.237 211.660,255.596 212.515,255.597 212.900 C 255.599 213.285,255.760 213.600,255.957 213.600 C 256.153 213.600,256.433 214.095,256.580 214.700 C 256.727 215.305,257.173 216.520,257.570 217.400 C 259.340 221.313,259.600 221.945,259.600 222.327 C 259.600 222.551,259.735 222.793,259.900 222.867 C 260.287 223.039,261.994 225.470,262.018 225.884 C 262.029 226.058,262.434 226.513,262.918 226.896 C 263.403 227.279,264.340 228.044,265.000 228.596 C 265.660 229.148,266.526 229.599,266.924 229.600 C 267.322 229.600,267.548 229.760,267.428 229.955 C 267.307 230.151,268.012 230.431,268.995 230.578 C 269.977 230.726,270.886 231.016,271.014 231.223 C 271.307 231.697,279.600 231.725,279.600 231.252 C 279.600 231.060,280.506 230.783,281.614 230.636 C 282.722 230.489,283.540 230.226,283.432 230.052 C 283.324 229.878,284.398 229.493,285.818 229.196 C 287.238 228.900,288.400 228.525,288.400 228.364 C 288.400 228.202,289.120 227.949,290.000 227.800 C 290.880 227.651,291.600 227.386,291.600 227.210 C 291.600 227.035,292.406 226.770,293.391 226.622 C 294.376 226.475,295.279 226.196,295.398 226.004 C 295.517 225.811,296.601 225.449,297.807 225.199 C 299.013 224.948,300.000 224.587,300.000 224.396 C 300.000 224.205,300.812 223.927,301.805 223.778 C 302.798 223.629,303.699 223.364,303.807 223.189 C 303.915 223.013,304.723 222.748,305.602 222.600 C 306.481 222.451,307.200 222.200,307.200 222.040 C 307.200 221.881,308.145 221.510,309.300 221.215 C 310.455 220.919,311.670 220.549,312.000 220.390 C 312.330 220.232,313.950 219.681,315.600 219.166 C 317.250 218.650,318.780 218.108,319.000 217.960 C 319.220 217.813,319.985 217.567,320.700 217.414 C 321.415 217.262,322.000 216.971,322.000 216.768 C 322.000 216.566,322.434 216.400,322.965 216.400 C 323.814 216.400,324.300 215.642,327.007 210.100 C 329.850 204.279,334.920 195.380,338.877 189.264 L 340.518 186.729 339.422 183.361 C 338.530 180.620,338.378 179.611,338.608 177.941 L 338.890 175.890 336.802 176.090 C 335.654 176.200,334.599 176.469,334.457 176.688 C 334.316 176.906,333.480 177.217,332.600 177.378 C 331.720 177.540,330.783 177.851,330.518 178.070 C 330.252 178.289,329.860 178.360,329.645 178.228 C 329.431 178.095,329.142 178.170,329.004 178.393 C 328.866 178.617,328.426 178.800,328.027 178.800 C 327.400 178.800,325.629 179.456,322.600 180.809 C 322.160 181.006,320.990 181.369,320.000 181.617 C 319.010 181.865,317.300 182.362,316.200 182.723 C 315.100 183.084,314.065 183.339,313.900 183.289 C 313.735 183.240,313.600 183.366,313.600 183.568 C 313.600 183.921,311.322 184.634,310.700 184.476 C 310.535 184.434,310.400 184.569,310.400 184.775 C 310.400 184.982,309.590 185.272,308.600 185.421 C 307.610 185.569,306.800 185.820,306.800 185.979 C 306.800 186.137,306.575 186.287,306.300 186.313 C 304.824 186.448,302.000 187.315,302.000 187.632 C 302.000 187.835,301.595 188.001,301.100 188.002 C 300.605 188.004,299.717 188.257,299.127 188.565 C 298.537 188.873,297.457 189.252,296.727 189.408 C 295.997 189.565,295.220 189.828,295.000 189.994 C 294.780 190.160,293.610 190.527,292.400 190.809 C 291.190 191.092,289.930 191.467,289.600 191.642 C 285.910 193.603,284.724 193.680,283.914 192.012 C 283.536 191.235,283.221 190.438,283.214 190.240 C 283.206 190.042,282.769 188.962,282.243 187.840 C 279.820 182.675,278.765 180.224,278.577 179.319 C 278.522 179.055,278.009 177.851,277.438 176.644 C 276.867 175.437,276.400 174.158,276.400 173.801 C 276.400 173.445,276.240 173.252,276.044 173.373 C 275.848 173.494,275.566 172.945,275.418 172.153 C 275.269 171.361,274.772 169.878,274.313 168.857 C 272.520 164.869,272.191 164.193,271.954 164.000 C 271.819 163.890,271.582 163.350,271.429 162.800 C 271.127 161.718,271.013 161.429,269.445 157.750 C 268.870 156.402,268.400 155.097,268.400 154.850 C 268.400 154.602,268.220 154.400,268.000 154.400 C 267.780 154.400,267.600 154.074,267.600 153.676 C 267.600 153.279,267.336 152.604,267.013 152.176 C 266.690 151.749,266.420 151.074,266.413 150.675 C 266.406 150.277,265.932 148.927,265.361 147.675 C 263.402 143.387,263.200 142.878,263.200 142.240 C 263.200 141.888,263.020 141.600,262.800 141.600 C 262.580 141.600,262.400 141.432,262.400 141.226 C 262.400 141.020,262.190 140.345,261.934 139.726 C 261.677 139.107,261.437 138.510,261.400 138.400 C 261.363 138.290,261.123 137.693,260.866 137.074 C 260.610 136.455,260.400 135.780,260.400 135.574 C 260.400 135.368,260.220 135.200,260.000 135.200 C 259.497 135.200,259.475 132.624,259.970 131.695 C 260.174 131.313,260.601 130.140,260.919 129.088 L 261.498 127.176 250.500 118.518 C 244.451 113.756,239.097 109.423,238.602 108.889 C 237.887 108.118,237.097 107.848,234.751 107.577 C 230.514 107.086,146.174 107.183,144.300 107.681 M66.109 256.000 C 66.109 256.990,66.187 257.395,66.282 256.900 C 66.378 256.405,66.378 255.595,66.282 255.100 C 66.187 254.605,66.109 255.010,66.109 256.000 " stroke="none" fill="#f2efea" fill-rule="evenodd"></path><path id="path1" d="M366.000 127.955 C 366.000 128.150,365.180 128.432,364.177 128.583 C 363.174 128.733,362.255 129.113,362.134 129.428 C 362.013 129.743,361.692 130.000,361.419 130.000 C 361.147 130.000,360.596 130.363,360.195 130.806 C 359.515 131.557,358.195 131.578,357.600 130.846 C 357.380 130.576,357.206 130.530,354.000 129.891 C 343.410 127.781,334.573 133.557,339.884 139.118 C 340.643 139.912,341.255 140.913,343.053 144.300 C 343.666 145.455,344.310 146.400,344.484 146.400 C 344.658 146.400,344.800 146.604,344.800 146.854 C 344.800 147.376,348.033 154.098,348.430 154.400 C 348.574 154.510,348.828 155.036,348.995 155.568 C 349.161 156.100,349.916 157.858,350.673 159.475 C 351.583 161.418,351.965 162.716,351.799 163.307 C 351.661 163.798,351.694 164.014,351.874 163.787 C 352.053 163.559,352.650 163.355,353.200 163.334 C 353.750 163.312,355.010 162.982,356.000 162.602 C 358.627 161.591,365.818 161.532,367.314 162.509 C 368.601 163.350,368.826 165.666,367.738 166.869 C 367.119 167.553,367.125 167.600,367.837 167.600 C 368.981 167.600,378.785 164.300,378.588 163.981 C 378.494 163.829,378.866 163.186,379.415 162.552 C 379.964 161.918,380.593 160.740,380.813 159.933 C 381.033 159.127,381.479 157.957,381.804 157.333 C 382.129 156.710,382.396 155.975,382.398 155.700 C 382.399 155.425,382.580 155.200,382.800 155.200 C 383.020 155.200,383.201 154.975,383.202 154.700 C 383.204 154.425,383.454 153.722,383.759 153.139 C 384.063 152.555,384.532 151.413,384.800 150.600 C 385.068 149.787,385.537 148.645,385.841 148.061 C 386.146 147.478,386.396 146.775,386.398 146.500 C 386.399 146.225,386.580 146.000,386.800 146.000 C 387.020 146.000,387.200 145.810,387.200 145.578 C 387.200 145.346,387.586 144.311,388.058 143.278 C 388.530 142.245,389.004 140.635,389.110 139.700 C 389.217 138.765,389.461 138.000,389.652 138.000 C 390.137 138.000,390.090 135.303,389.600 135.000 C 389.380 134.864,389.200 134.347,389.200 133.852 C 389.200 132.817,387.849 131.200,386.984 131.200 C 386.663 131.200,386.400 131.026,386.400 130.812 C 386.400 130.586,384.669 130.428,382.253 130.433 C 377.688 130.443,376.161 130.196,375.856 129.402 C 375.745 129.112,375.102 128.754,374.427 128.606 C 373.752 128.458,373.200 128.171,373.200 127.968 C 373.200 127.766,371.580 127.600,369.600 127.600 C 367.620 127.600,366.000 127.760,366.000 127.955 M51.300 131.456 C 50.805 131.566,50.400 131.823,50.400 132.028 C 50.400 132.233,50.124 132.400,49.787 132.400 C 47.500 132.400,46.026 136.706,47.406 139.353 C 47.737 139.987,48.120 141.247,48.258 142.153 C 48.396 143.059,48.649 143.980,48.819 144.200 C 48.989 144.420,49.258 145.320,49.416 146.200 C 49.575 147.080,49.840 147.980,50.006 148.200 C 50.319 148.614,51.409 154.369,51.276 154.900 C 51.234 155.065,51.365 155.200,51.566 155.200 C 51.767 155.200,52.059 156.595,52.214 158.300 C 52.369 160.005,52.634 161.580,52.804 161.800 C 52.973 162.020,53.240 163.685,53.397 165.500 C 53.555 167.315,53.822 168.800,53.992 168.800 C 54.162 168.800,54.380 169.749,54.476 170.908 C 54.817 175.028,58.582 178.021,64.941 179.227 C 69.734 180.136,82.618 179.539,82.917 178.394 C 83.117 177.632,87.109 172.323,95.911 161.118 C 105.278 149.194,105.116 145.254,95.200 143.789 C 93.157 143.487,91.600 142.642,91.600 141.835 C 91.600 141.101,88.113 137.600,87.381 137.600 C 87.062 137.600,86.800 137.423,86.800 137.208 C 86.800 136.992,86.305 136.694,85.700 136.546 C 85.095 136.398,84.481 136.094,84.334 135.871 C 83.387 134.420,72.749 135.677,71.524 137.384 C 71.368 137.602,70.846 137.335,70.321 136.769 C 69.368 135.740,65.451 133.600,64.521 133.600 C 64.235 133.600,64.000 133.434,64.000 133.232 C 64.000 133.029,63.415 132.737,62.700 132.582 C 61.985 132.426,61.287 132.121,61.148 131.904 C 60.881 131.485,52.825 131.118,51.300 131.456 M378.704 168.982 C 377.403 170.772,374.033 171.655,367.600 171.892 L 361.800 172.106 357.709 174.661 C 355.459 176.066,351.434 178.333,348.766 179.699 C 344.148 182.062,340.800 185.067,340.800 186.847 C 340.800 187.021,339.662 188.927,338.270 191.082 C 333.608 198.302,328.293 207.887,326.115 213.001 C 325.646 214.102,324.803 215.538,324.241 216.192 C 322.360 218.381,321.642 234.797,323.192 240.200 C 323.444 241.080,323.840 242.610,324.071 243.600 C 324.303 244.590,324.631 245.580,324.800 245.800 C 324.969 246.020,325.239 246.830,325.400 247.600 C 325.561 248.370,325.831 249.180,326.000 249.400 C 326.169 249.620,326.433 250.385,326.586 251.100 C 326.738 251.815,326.993 252.400,327.151 252.400 C 327.310 252.400,327.681 253.075,327.976 253.900 C 328.271 254.725,328.622 255.490,328.756 255.600 C 328.890 255.710,329.446 256.655,329.992 257.700 C 330.537 258.745,331.122 259.600,331.292 259.600 C 331.461 259.600,331.600 259.836,331.600 260.125 C 331.600 260.413,331.960 261.036,332.400 261.508 C 332.840 261.980,333.200 262.488,333.200 262.637 C 333.200 262.786,333.605 263.307,334.100 263.794 C 334.595 264.282,335.630 265.454,336.400 266.399 C 338.950 269.529,344.269 273.037,351.000 276.030 C 351.767 276.371,353.563 276.844,357.000 277.609 C 362.251 278.778,373.951 277.773,378.260 275.782 C 378.954 275.462,379.719 275.200,379.960 275.200 C 380.202 275.200,380.400 275.064,380.400 274.898 C 380.400 274.731,381.279 274.192,382.352 273.700 C 385.403 272.300,389.816 267.681,392.105 263.492 C 392.714 262.379,393.368 261.273,393.559 261.034 C 393.751 260.795,394.033 260.015,394.186 259.300 C 394.338 258.585,394.613 258.000,394.797 258.000 C 394.980 258.000,395.251 257.280,395.400 256.400 C 395.549 255.520,395.822 254.800,396.006 254.800 C 396.191 254.800,396.468 253.765,396.621 252.500 C 396.774 251.235,397.040 250.020,397.214 249.800 C 397.387 249.580,397.737 247.870,397.992 246.000 C 398.247 244.130,398.614 242.240,398.809 241.800 C 400.385 238.236,400.400 210.528,398.828 207.000 C 398.294 205.801,396.396 199.474,396.398 198.900 C 396.399 198.625,396.220 198.400,396.000 198.400 C 395.780 198.400,395.600 198.113,395.600 197.762 C 395.600 197.411,395.344 196.646,395.031 196.062 C 394.718 195.478,394.074 194.100,393.599 193.000 C 391.859 188.967,389.928 185.200,389.600 185.200 C 389.415 185.200,389.149 184.705,389.009 184.100 C 388.868 183.495,388.310 182.280,387.768 181.400 C 387.226 180.520,386.567 179.305,386.303 178.700 C 386.040 178.095,385.684 177.600,385.512 177.600 C 385.341 177.600,385.200 177.246,385.200 176.813 C 385.200 176.319,385.000 176.102,384.664 176.231 C 384.308 176.367,383.354 175.021,381.819 172.218 C 380.549 169.898,379.485 168.006,379.455 168.013 C 379.425 168.019,379.087 168.456,378.704 168.982 M385.646 172.267 C 385.621 172.524,385.484 173.064,385.341 173.467 C 385.140 174.036,385.194 174.097,385.579 173.742 C 385.852 173.491,385.989 172.951,385.884 172.542 C 385.779 172.134,385.672 172.010,385.646 172.267 M50.166 179.809 C 49.085 181.024,47.390 182.886,46.400 183.948 C 44.858 185.601,41.981 188.963,40.606 190.719 C 40.383 191.005,39.920 191.545,39.579 191.919 C 39.237 192.294,37.977 193.857,36.779 195.392 C 34.329 198.532,34.121 198.784,32.186 200.956 C 31.424 201.812,30.800 202.665,30.800 202.852 C 30.800 203.040,30.260 203.709,29.600 204.340 C 28.940 204.971,28.400 205.632,28.400 205.810 C 28.400 205.987,28.138 206.418,27.817 206.766 C 26.046 208.691,24.400 210.737,24.400 211.015 C 24.400 211.190,24.124 211.618,23.787 211.966 C 22.461 213.338,21.125 215.052,20.566 216.100 C 20.244 216.705,19.804 217.200,19.590 217.200 C 19.375 217.200,19.200 217.476,19.200 217.813 C 19.200 218.149,18.937 218.526,18.615 218.650 C 18.294 218.773,17.920 219.223,17.784 219.650 C 17.649 220.077,17.141 220.855,16.655 221.379 C 16.169 221.903,15.508 222.833,15.186 223.445 C 14.864 224.058,14.150 225.054,13.600 225.658 C 12.194 227.202,11.881 227.638,11.200 229.000 C 10.870 229.660,10.420 230.419,10.200 230.686 C 9.229 231.866,8.932 232.351,7.800 234.608 C 7.140 235.924,6.479 237.092,6.332 237.204 C 6.184 237.316,5.940 237.901,5.788 238.504 C 5.637 239.107,5.353 239.600,5.157 239.600 C 4.960 239.600,4.800 239.798,4.800 240.040 C 4.800 240.281,4.534 241.046,4.209 241.740 C 3.264 243.758,1.600 249.138,1.600 250.179 C 1.600 250.704,1.375 251.208,1.100 251.300 C 0.419 251.527,0.375 272.397,1.054 273.238 C 1.303 273.547,1.633 274.388,1.787 275.107 C 2.081 276.480,4.442 281.259,5.299 282.214 C 5.902 282.886,6.241 283.320,7.793 285.400 C 9.274 287.387,11.125 289.118,14.100 291.296 C 15.365 292.223,16.400 293.120,16.400 293.290 C 16.400 293.461,16.646 293.600,16.946 293.600 C 17.246 293.600,17.921 293.935,18.446 294.345 C 18.971 294.755,19.850 295.229,20.400 295.399 C 20.950 295.569,21.490 295.823,21.600 295.964 C 21.995 296.470,27.828 299.142,29.100 299.400 C 29.815 299.545,30.400 299.813,30.400 299.997 C 30.400 300.180,31.120 300.451,32.000 300.600 C 32.880 300.749,33.600 301.018,33.600 301.198 C 33.600 301.378,34.500 301.649,35.600 301.800 C 36.699 301.951,37.690 302.221,37.800 302.400 C 37.910 302.579,38.946 302.852,40.100 303.007 C 41.255 303.163,42.380 303.429,42.600 303.599 C 44.592 305.141,65.428 305.132,66.971 303.589 C 67.185 303.375,67.634 303.200,67.969 303.200 C 68.696 303.200,74.374 300.429,75.129 299.706 C 75.419 299.428,75.810 299.200,75.998 299.200 C 76.185 299.200,76.878 298.660,77.538 298.000 C 78.198 297.340,78.889 296.800,79.074 296.800 C 79.258 296.800,79.857 296.237,80.404 295.549 C 80.952 294.861,81.850 293.820,82.400 293.235 C 83.817 291.730,85.634 288.998,86.483 287.100 C 86.754 286.495,87.102 286.000,87.256 286.000 C 87.410 286.000,87.655 285.460,87.800 284.800 C 87.945 284.140,88.197 283.600,88.361 283.600 C 88.525 283.600,89.157 282.025,89.766 280.100 C 90.375 278.175,91.024 276.307,91.209 275.949 C 91.394 275.591,91.671 274.601,91.825 273.749 C 91.979 272.897,92.243 272.020,92.413 271.800 C 92.727 271.392,93.235 268.713,94.080 263.000 C 94.743 258.524,94.751 232.603,94.092 229.400 C 93.820 228.080,93.394 225.740,93.146 224.200 C 92.898 222.660,92.556 221.220,92.385 221.000 C 92.215 220.780,91.948 219.745,91.792 218.700 C 91.636 217.655,91.373 216.800,91.206 216.800 C 91.039 216.800,90.779 215.855,90.628 214.700 C 90.476 213.545,90.003 211.261,89.576 209.625 C 89.149 207.988,88.800 206.323,88.800 205.925 C 88.800 205.526,88.643 205.200,88.452 205.200 C 88.260 205.200,87.984 204.300,87.838 203.200 C 87.692 202.100,87.422 201.200,87.238 201.200 C 86.937 201.200,86.186 197.439,86.338 196.700 C 86.441 196.203,85.871 196.355,84.194 197.269 C 77.694 200.813,74.666 195.764,78.672 188.060 L 80.305 184.917 78.473 185.308 C 73.184 186.436,58.444 182.473,54.258 178.798 C 52.474 177.231,52.456 177.235,50.166 179.809 M366.479 203.044 C 366.968 203.185,367.192 203.765,367.279 205.112 L 367.400 206.983 370.127 207.695 C 375.805 209.178,376.009 209.475,375.566 215.600 C 374.958 224.007,375.096 223.864,370.002 221.337 C 364.538 218.626,364.753 219.689,370.704 224.806 C 374.983 228.485,375.805 229.941,375.784 233.803 C 375.757 238.835,371.988 243.568,366.788 245.101 L 364.471 245.784 364.135 248.392 L 363.800 251.000 360.870 250.879 C 357.263 250.729,355.869 250.263,356.151 249.300 C 356.264 248.915,356.406 247.813,356.466 246.851 L 356.577 245.103 354.377 244.422 C 351.443 243.514,347.545 241.404,346.190 239.989 L 345.092 238.843 345.808 236.122 C 346.201 234.625,346.822 232.230,347.187 230.800 C 347.985 227.678,348.346 227.541,352.464 228.792 C 359.437 230.910,359.644 228.052,352.866 223.247 C 348.540 220.180,346.537 218.159,346.172 216.493 C 346.041 215.892,345.857 215.158,345.765 214.862 C 344.672 211.376,350.830 206.557,356.927 206.126 L 360.386 205.882 360.645 204.441 C 360.788 203.648,360.993 202.847,361.101 202.660 C 361.284 202.342,364.962 202.605,366.479 203.044 M58.400 221.967 L 61.000 222.605 60.841 224.002 C 60.507 226.936,60.433 226.821,63.400 227.972 C 70.143 230.585,70.241 230.791,68.626 238.907 C 67.113 246.511,66.974 246.631,62.859 243.895 C 55.962 239.308,56.037 241.118,63.025 247.917 C 71.041 255.717,65.185 269.200,53.780 269.200 C 52.510 269.200,52.474 269.251,51.799 272.004 C 50.937 275.523,51.053 275.469,46.666 274.372 C 41.917 273.184,41.689 272.759,43.407 268.320 C 43.616 267.779,43.136 267.398,41.060 266.456 C 36.890 264.566,31.224 260.295,31.189 259.017 C 31.182 258.788,32.205 256.035,33.460 252.900 C 36.060 246.412,35.792 246.599,39.863 248.434 C 47.393 251.829,49.400 249.377,43.349 244.175 C 35.000 236.995,33.381 233.803,36.061 229.800 C 38.818 225.682,42.413 224.182,48.691 224.528 L 52.782 224.754 53.231 223.077 C 53.832 220.837,53.928 220.722,54.934 221.048 C 55.410 221.202,56.970 221.616,58.400 221.967 " stroke="none" fill="#f7b31d" fill-rule="evenodd"></path><path id="path2" d="M273.300 0.665 C 272.805 0.770,272.400 0.989,272.400 1.152 C 272.400 1.315,271.500 1.679,270.400 1.961 C 269.300 2.243,268.400 2.623,268.400 2.805 C 268.400 2.987,267.860 3.255,267.200 3.400 C 266.540 3.545,266.000 3.790,266.000 3.944 C 266.000 4.098,265.505 4.451,264.900 4.728 C 262.853 5.665,262.000 6.188,262.000 6.508 C 262.000 6.683,261.667 6.955,261.259 7.113 C 259.820 7.671,250.000 16.650,250.000 17.408 C 250.000 17.545,249.775 17.885,249.500 18.163 C 249.225 18.441,248.640 19.170,248.200 19.783 C 247.760 20.396,247.120 21.191,246.777 21.549 C 245.798 22.573,243.200 26.363,243.200 26.768 C 243.200 26.969,243.056 27.193,242.879 27.267 C 242.446 27.446,239.763 31.972,239.420 33.100 C 239.269 33.595,238.993 34.000,238.805 34.000 C 238.617 34.000,238.345 34.540,238.200 35.200 C 238.055 35.860,237.771 36.400,237.568 36.400 C 237.366 36.400,237.200 36.590,237.200 36.822 C 237.200 37.054,236.835 38.044,236.390 39.022 C 235.944 40.000,235.472 41.340,235.340 42.000 C 235.208 42.660,234.959 43.200,234.788 43.200 C 234.616 43.200,234.351 44.100,234.200 45.200 C 234.049 46.299,233.777 47.291,233.596 47.402 C 233.416 47.514,233.141 48.957,232.986 50.608 C 232.832 52.260,232.546 53.710,232.352 53.829 C 231.899 54.110,231.889 65.484,232.342 65.764 C 232.530 65.880,232.800 67.087,232.942 68.447 C 233.084 69.806,233.357 71.117,233.548 71.359 C 233.739 71.602,234.017 72.475,234.166 73.300 C 234.315 74.125,234.589 74.800,234.775 74.800 C 234.961 74.800,235.236 75.290,235.386 75.889 C 236.652 80.931,244.376 80.300,250.673 74.638 C 253.991 71.655,254.675 69.909,256.639 59.400 C 258.460 49.655,260.924 45.718,264.957 46.105 C 271.140 46.700,271.462 53.468,265.956 67.085 C 265.321 68.654,265.320 68.653,268.591 69.840 C 271.789 71.001,273.208 71.047,274.456 70.032 L 275.400 69.263 275.270 59.891 C 275.073 45.590,276.036 40.712,279.801 36.947 C 286.987 29.760,299.571 33.113,319.703 47.577 C 322.433 49.538,325.416 51.534,326.333 52.012 C 327.250 52.490,328.001 52.998,328.003 53.140 C 328.009 53.637,330.168 54.400,331.566 54.400 C 333.071 54.400,336.400 53.291,336.400 52.789 C 336.400 52.623,336.805 52.376,337.300 52.240 C 338.708 51.853,342.800 45.549,342.800 43.767 C 342.800 43.455,342.962 43.200,343.161 43.200 C 343.359 43.200,343.649 42.075,343.805 40.700 C 343.961 39.325,344.285 37.958,344.524 37.663 C 345.142 36.901,345.146 24.421,344.529 23.162 C 344.270 22.633,343.946 21.525,343.811 20.700 C 343.675 19.875,343.404 19.200,343.209 19.200 C 343.014 19.200,342.740 18.840,342.600 18.400 C 342.460 17.960,342.103 17.600,341.806 17.600 C 341.510 17.600,341.192 17.375,341.100 17.100 C 340.879 16.439,333.115 16.456,332.894 17.118 C 332.812 17.365,331.677 17.687,330.372 17.835 C 329.068 17.983,328.000 18.260,328.000 18.452 C 328.000 18.643,326.830 18.800,325.400 18.800 C 323.970 18.800,322.800 18.643,322.800 18.452 C 322.800 18.260,321.914 17.985,320.830 17.842 C 319.747 17.698,318.802 17.450,318.730 17.290 C 318.659 17.131,317.520 16.565,316.200 16.033 C 314.880 15.501,313.371 14.736,312.846 14.333 C 312.321 13.930,311.646 13.600,311.346 13.600 C 311.046 13.600,310.800 13.465,310.799 13.300 C 310.799 13.135,309.944 12.464,308.899 11.810 C 306.842 10.520,306.779 10.474,305.000 8.969 C 304.340 8.410,303.269 7.670,302.620 7.325 C 301.970 6.979,301.192 6.450,300.891 6.148 C 300.590 5.847,300.105 5.600,299.814 5.600 C 299.523 5.600,299.182 5.330,299.055 5.000 C 298.929 4.670,298.549 4.400,298.213 4.400 C 297.876 4.400,297.600 4.220,297.600 4.000 C 297.600 3.780,297.410 3.600,297.178 3.600 C 296.946 3.600,295.995 3.253,295.064 2.829 C 294.134 2.405,292.838 1.928,292.186 1.768 C 291.534 1.608,290.872 1.280,290.715 1.038 C 290.427 0.595,275.175 0.268,273.300 0.665 M373.400 166.008 C 370.980 166.851,368.690 167.554,368.311 167.571 C 367.932 167.587,366.435 168.545,364.985 169.700 L 362.348 171.800 365.808 171.916 C 374.979 172.224,381.152 169.362,379.648 165.500 C 379.105 164.106,378.788 164.132,373.400 166.008 M52.900 174.563 C 51.968 175.547,51.662 177.600,52.447 177.600 C 52.693 177.600,53.508 178.139,54.258 178.798 C 59.067 183.019,76.896 187.190,80.232 184.874 C 80.879 184.425,83.200 180.576,83.200 179.954 C 83.200 179.468,81.736 179.379,73.900 179.389 C 62.555 179.403,58.188 178.273,56.133 174.794 C 55.276 173.344,54.133 173.263,52.900 174.563 M144.572 202.571 C 144.437 203.105,144.074 203.639,143.764 203.759 C 143.454 203.878,143.200 204.223,143.200 204.526 C 143.200 204.829,142.840 205.493,142.400 206.000 C 141.960 206.507,141.600 207.165,141.600 207.461 C 141.600 207.758,141.434 208.000,141.232 208.000 C 141.029 208.000,140.745 208.540,140.600 209.200 C 140.455 209.860,140.208 210.400,140.052 210.400 C 139.653 210.400,137.600 214.537,137.600 215.340 C 137.600 215.703,137.420 216.000,137.200 216.000 C 136.980 216.000,136.794 216.225,136.786 216.500 C 136.779 216.775,136.425 217.720,136.000 218.600 C 135.575 219.480,135.221 220.479,135.214 220.820 C 135.206 221.161,135.027 221.613,134.815 221.825 C 134.603 222.037,134.230 223.558,133.984 225.205 C 133.739 226.852,133.373 228.753,133.169 229.428 C 132.685 231.039,132.699 232.690,133.200 233.000 C 133.691 233.304,133.731 235.072,133.253 235.367 C 133.062 235.485,132.786 236.486,132.639 237.591 C 132.492 238.696,132.219 239.600,132.031 239.600 C 131.843 239.600,131.563 240.275,131.409 241.100 C 131.255 241.925,130.996 242.780,130.834 243.000 C 130.406 243.582,129.600 246.552,129.600 247.546 C 129.600 248.016,129.443 248.400,129.251 248.400 C 129.059 248.400,128.791 249.096,128.655 249.947 C 128.519 250.798,128.137 252.013,127.806 252.647 C 127.476 253.281,127.204 254.079,127.202 254.420 C 127.201 254.761,127.041 255.211,126.847 255.420 C 126.495 255.799,125.495 259.298,124.709 262.900 C 124.481 263.945,124.138 264.800,123.947 264.800 C 123.756 264.800,123.600 265.088,123.600 265.440 C 123.600 265.791,123.346 266.646,123.035 267.340 C 122.375 268.811,120.928 273.588,120.538 275.582 C 120.389 276.343,120.028 277.423,119.736 277.982 C 119.444 278.542,119.204 279.315,119.202 279.700 C 119.201 280.085,119.050 280.400,118.867 280.400 C 118.542 280.400,118.399 280.859,116.933 286.600 C 116.540 288.140,116.085 289.458,115.922 289.529 C 115.759 289.600,115.510 290.275,115.368 291.029 C 115.227 291.783,114.967 292.400,114.791 292.400 C 114.614 292.400,114.349 293.119,114.200 293.998 C 114.052 294.877,113.766 295.697,113.565 295.822 C 113.364 295.946,113.200 296.390,113.200 296.809 C 113.200 297.257,110.407 300.400,106.400 304.458 C 102.660 308.247,99.600 311.381,99.600 311.423 C 99.600 311.465,98.491 312.557,97.135 313.850 C 95.779 315.142,91.268 319.530,87.110 323.600 C 77.036 333.460,77.489 333.012,76.745 333.857 C 76.384 334.265,74.511 336.040,72.582 337.800 C 70.653 339.560,65.411 344.645,60.934 349.100 C 56.456 353.555,52.683 357.200,52.549 357.200 C 52.294 357.200,49.752 359.734,48.892 360.846 C 48.335 361.565,48.815 362.872,50.111 364.169 C 50.996 365.053,50.991 365.955,50.100 366.281 C 49.715 366.421,49.016 366.821,48.546 367.168 C 48.077 367.516,47.290 368.070,46.797 368.400 C 46.305 368.730,45.695 369.197,45.443 369.437 C 45.190 369.677,44.549 370.106,44.017 370.391 C 42.940 370.967,42.600 371.232,40.529 373.100 C 39.736 373.815,38.947 374.400,38.775 374.400 C 38.603 374.400,37.922 374.940,37.262 375.600 C 36.602 376.260,35.877 376.800,35.651 376.800 C 35.425 376.800,35.096 377.035,34.920 377.322 C 34.744 377.609,33.889 378.374,33.020 379.022 C 32.151 379.670,30.930 380.695,30.306 381.300 C 29.683 381.905,28.999 382.400,28.786 382.400 C 27.791 382.400,28.594 384.061,30.448 385.838 C 31.574 386.917,32.789 388.138,33.148 388.552 C 33.506 388.965,34.415 389.865,35.167 390.552 C 35.920 391.238,36.820 392.137,37.167 392.549 C 37.515 392.960,38.430 393.927,39.200 394.697 L 40.600 396.097 44.500 395.865 L 48.400 395.633 48.400 398.593 C 48.400 400.221,48.559 401.651,48.753 401.771 C 48.948 401.891,49.230 402.982,49.382 404.195 C 49.534 405.408,49.825 406.400,50.029 406.400 C 50.233 406.400,50.400 406.698,50.400 407.061 C 50.400 407.688,52.225 411.676,53.301 413.400 C 54.196 414.834,57.710 418.012,58.666 418.252 C 59.180 418.381,59.600 418.630,59.600 418.804 C 59.600 419.735,62.758 420.000,73.860 420.000 L 85.600 420.000 85.600 417.939 C 85.600 415.803,81.913 411.200,80.202 411.200 C 79.871 411.200,79.600 411.023,79.600 410.808 C 79.600 410.592,79.150 410.302,78.600 410.164 C 78.050 410.026,77.600 409.775,77.600 409.605 C 77.600 409.436,77.095 409.088,76.479 408.833 C 75.450 408.407,74.071 407.257,72.957 405.896 C 72.713 405.599,72.295 404.645,72.029 403.777 C 71.762 402.910,71.379 401.840,71.178 401.400 C 70.776 400.524,70.148 397.247,69.606 393.200 C 69.234 390.418,69.495 386.112,70.058 385.764 C 70.246 385.648,70.400 385.203,70.400 384.776 C 70.400 383.734,71.049 383.798,72.119 384.944 C 73.971 386.929,74.277 386.785,79.221 381.607 C 81.739 378.969,86.860 373.665,90.600 369.819 C 97.249 362.983,108.099 351.699,112.314 347.238 C 114.999 344.396,126.969 332.037,133.964 324.885 C 138.627 320.116,141.588 316.777,143.794 313.800 C 144.120 313.360,144.750 312.522,145.193 311.937 C 145.637 311.352,146.000 310.696,146.000 310.480 C 146.000 310.263,146.270 309.982,146.600 309.855 C 146.930 309.729,147.200 309.377,147.200 309.075 C 147.200 308.772,147.560 308.198,148.000 307.800 C 148.440 307.402,148.800 306.853,148.800 306.581 C 148.800 306.308,149.070 305.982,149.400 305.855 C 149.730 305.729,150.000 305.349,150.000 305.013 C 150.000 304.676,150.184 304.400,150.409 304.400 C 150.633 304.400,151.036 303.905,151.304 303.300 C 151.571 302.695,151.992 302.020,152.238 301.800 C 152.717 301.372,156.118 296.585,160.336 290.400 C 163.548 285.689,164.912 283.839,165.300 283.667 C 165.465 283.593,165.600 283.358,165.600 283.143 C 165.600 282.808,167.501 280.055,168.796 278.515 C 169.020 278.248,169.428 277.528,169.702 276.915 C 169.976 276.302,170.572 275.440,171.026 275.000 C 171.480 274.560,172.630 272.985,173.581 271.500 C 174.533 270.015,175.466 268.800,175.656 268.800 C 175.845 268.800,176.000 268.530,176.000 268.200 C 176.000 267.867,176.356 267.600,176.800 267.600 C 177.240 267.600,177.600 267.746,177.600 267.925 C 177.600 268.104,178.230 268.498,179.000 268.800 C 179.770 269.102,180.400 269.496,180.400 269.675 C 180.400 269.854,180.633 270.000,180.919 270.000 C 181.487 270.000,182.924 271.001,183.934 272.100 C 184.288 272.485,184.725 272.800,184.905 272.800 C 185.312 272.800,187.752 274.492,187.933 274.900 C 188.007 275.065,188.282 275.200,188.544 275.200 C 188.807 275.200,189.330 275.560,189.707 276.000 C 190.084 276.440,190.664 276.800,190.996 276.800 C 191.328 276.800,191.600 276.978,191.600 277.195 C 191.600 277.412,192.185 277.841,192.900 278.148 C 193.615 278.455,194.560 279.045,195.000 279.460 C 195.440 279.874,196.825 280.889,198.079 281.714 C 199.332 282.539,200.592 283.446,200.879 283.730 C 201.165 284.013,201.670 284.376,202.000 284.536 C 202.330 284.696,203.278 285.241,204.107 285.746 L 205.614 286.665 204.607 287.124 C 204.053 287.376,203.600 287.767,203.600 287.991 C 203.600 288.216,203.356 288.400,203.058 288.400 C 202.761 288.400,202.063 288.805,201.509 289.300 C 199.394 291.190,197.910 292.400,197.707 292.400 C 197.525 292.400,196.420 293.293,193.500 295.799 C 193.115 296.130,192.657 296.400,192.481 296.400 C 192.306 296.400,191.721 296.932,191.181 297.583 C 190.642 298.234,190.001 298.774,189.758 298.783 C 189.516 298.792,188.863 299.205,188.309 299.700 C 186.081 301.690,184.705 302.800,184.459 302.803 C 184.316 302.805,183.537 303.435,182.727 304.203 C 181.916 304.972,181.101 305.600,180.916 305.600 C 180.730 305.600,180.294 305.915,179.947 306.300 C 179.599 306.685,178.828 307.349,178.232 307.775 C 177.637 308.201,176.811 308.831,176.397 309.175 C 175.658 309.789,175.000 310.302,171.800 312.758 C 170.920 313.433,169.716 314.439,169.126 314.993 C 168.535 315.547,167.868 316.000,167.645 316.000 C 167.422 316.000,167.096 316.226,166.920 316.502 C 166.744 316.779,165.880 317.536,165.000 318.186 C 164.120 318.835,163.340 319.509,163.267 319.683 C 163.193 319.858,162.878 320.000,162.567 320.000 C 161.860 320.000,161.804 321.842,162.500 322.167 C 162.899 322.353,162.898 322.447,162.497 322.634 C 162.220 322.763,161.258 323.483,160.359 324.234 C 159.460 324.986,158.554 325.600,158.345 325.600 C 158.137 325.600,157.580 325.960,157.108 326.400 C 156.636 326.840,156.013 327.200,155.725 327.200 C 155.436 327.200,155.200 327.365,155.200 327.567 C 155.200 327.769,154.525 328.348,153.700 328.852 C 152.875 329.357,151.962 330.002,151.671 330.285 C 151.381 330.568,150.989 330.800,150.800 330.800 C 150.611 330.800,150.214 331.025,149.918 331.300 C 148.904 332.239,146.833 333.600,146.416 333.600 C 146.187 333.600,146.000 333.780,146.000 334.000 C 146.000 334.220,145.730 334.400,145.400 334.400 C 145.027 334.400,144.800 334.778,144.800 335.400 C 144.800 335.950,144.951 336.400,145.136 336.400 C 145.320 336.400,145.682 336.805,145.938 337.300 C 146.195 337.795,146.862 338.920,147.420 339.800 C 147.978 340.680,148.537 341.715,148.664 342.100 C 148.790 342.485,149.052 342.800,149.247 342.800 C 149.441 342.800,149.600 343.076,149.600 343.413 C 149.600 343.749,149.870 344.129,150.200 344.255 C 150.530 344.382,150.800 344.709,150.800 344.982 C 150.800 346.963,155.130 347.731,156.234 345.945 C 156.351 345.755,156.950 345.600,157.564 345.600 L 158.680 345.600 158.962 352.700 C 159.118 356.605,159.415 359.860,159.622 359.933 C 159.830 360.007,160.000 360.619,160.000 361.295 C 160.000 366.787,171.786 379.600,176.838 379.600 C 177.477 379.600,178.000 379.420,178.000 379.200 C 178.000 378.980,178.231 378.800,178.514 378.800 C 179.216 378.800,180.400 376.704,180.400 375.462 C 180.400 374.904,180.580 374.336,180.800 374.200 C 181.288 373.899,181.335 370.931,180.857 370.635 C 180.669 370.519,180.410 369.416,180.283 368.184 C 180.156 366.952,179.833 365.681,179.565 365.358 C 179.297 365.035,178.992 363.423,178.886 361.776 C 178.780 360.129,178.538 358.685,178.347 358.567 C 177.728 358.184,177.924 348.819,178.564 348.179 C 178.875 347.868,179.198 347.407,179.282 347.153 C 179.394 346.818,179.677 346.841,180.310 347.237 C 181.297 347.853,182.982 347.108,184.634 345.325 C 185.106 344.816,185.625 344.400,185.788 344.400 C 185.951 344.400,186.580 343.995,187.187 343.500 C 187.793 343.005,188.702 342.330,189.207 342.000 C 189.711 341.670,190.407 341.085,190.751 340.700 C 191.096 340.315,191.608 340.000,191.889 340.000 C 192.170 340.000,192.400 339.859,192.400 339.686 C 192.400 339.514,192.895 339.073,193.500 338.706 C 194.105 338.340,195.078 337.626,195.663 337.120 C 196.247 336.614,197.127 335.930,197.618 335.600 C 198.998 334.673,200.985 333.033,201.133 332.700 C 201.207 332.535,201.527 332.400,201.846 332.400 C 202.164 332.400,202.529 332.130,202.655 331.800 C 202.782 331.470,203.063 331.200,203.280 331.200 C 203.716 331.200,205.417 329.957,207.164 328.362 C 207.790 327.791,208.593 327.211,208.951 327.074 C 209.308 326.937,209.600 326.652,209.600 326.440 C 209.600 326.227,210.005 325.929,210.500 325.776 C 210.995 325.624,211.670 325.257,212.000 324.961 C 212.330 324.665,213.146 323.923,213.814 323.311 C 214.482 322.700,215.517 321.979,216.114 321.709 C 216.711 321.438,217.200 321.033,217.200 320.809 C 217.200 320.584,217.430 320.400,217.711 320.400 C 217.992 320.400,218.513 320.085,218.868 319.700 C 219.223 319.315,220.523 318.294,221.757 317.430 C 222.990 316.567,224.000 315.712,224.000 315.530 C 224.000 315.349,224.230 315.200,224.511 315.200 C 224.792 315.200,225.467 314.704,226.011 314.097 C 226.555 313.490,227.495 312.774,228.100 312.506 C 228.705 312.237,229.200 311.833,229.200 311.609 C 229.200 311.384,229.430 311.200,229.711 311.200 C 229.992 311.200,230.513 310.885,230.868 310.500 C 231.223 310.115,232.523 309.094,233.757 308.230 C 234.990 307.367,236.000 306.512,236.000 306.330 C 236.000 306.149,236.238 306.000,236.528 306.000 C 236.818 306.000,237.651 305.469,238.378 304.820 C 239.105 304.171,240.442 303.137,241.350 302.521 C 242.257 301.906,243.144 301.177,243.320 300.901 C 243.496 300.626,243.901 300.400,244.220 300.400 C 244.539 300.400,244.800 300.251,244.800 300.070 C 244.800 299.888,245.804 299.033,247.032 298.170 C 249.559 296.393,252.800 293.393,252.800 292.831 C 252.800 292.625,253.025 292.217,253.300 291.922 C 256.099 288.930,256.284 274.000,253.523 274.000 C 253.345 274.000,253.200 273.761,253.200 273.469 C 253.200 273.176,251.556 271.331,249.547 269.369 C 247.539 267.406,245.609 265.485,245.259 265.100 C 244.909 264.715,244.493 264.400,244.336 264.400 C 244.178 264.400,242.344 262.735,240.261 260.700 C 234.955 255.519,228.013 249.018,226.669 247.973 C 226.047 247.489,223.951 245.497,222.011 243.546 C 220.072 241.596,218.363 240.000,218.214 240.000 C 218.065 240.000,216.458 238.515,214.642 236.700 C 209.851 231.910,206.608 229.200,205.668 229.200 C 204.313 229.200,183.019 219.559,164.800 210.697 C 160.510 208.611,154.840 206.064,152.200 205.038 C 145.634 202.486,145.600 202.470,145.600 202.009 C 145.600 201.192,144.809 201.625,144.572 202.571 " stroke="none" fill="#443426" fill-rule="evenodd"></path><path id="path3" d="M284.441 34.055 C 277.101 36.379,275.026 42.223,275.270 59.891 L 275.400 69.263 274.456 70.032 C 273.208 71.047,271.789 71.001,268.591 69.840 C 265.320 68.653,265.321 68.654,265.956 67.085 C 271.462 53.468,271.140 46.700,264.957 46.105 C 260.924 45.718,258.460 49.655,256.639 59.400 C 254.675 69.909,253.991 71.655,250.673 74.638 C 248.074 76.975,243.396 79.267,240.922 79.415 C 239.865 79.479,238.865 79.546,238.700 79.565 C 238.251 79.617,238.338 81.915,238.800 82.200 C 239.020 82.336,239.200 82.971,239.200 83.611 C 239.200 84.823,240.784 90.072,241.809 92.260 C 242.134 92.954,242.400 93.719,242.400 93.960 C 242.400 94.202,242.580 94.400,242.800 94.400 C 243.020 94.400,243.207 94.625,243.215 94.900 C 243.223 95.175,243.929 96.570,244.783 98.000 L 246.335 100.600 242.368 104.564 C 240.185 106.744,238.400 108.572,238.400 108.626 C 238.400 108.732,246.990 115.566,253.200 120.401 C 255.290 122.028,258.017 124.225,259.259 125.284 L 261.518 127.208 262.011 125.104 C 262.283 123.947,262.645 122.820,262.817 122.600 C 262.988 122.380,263.247 121.570,263.393 120.800 C 263.987 117.652,264.504 117.589,269.338 120.075 C 275.049 123.012,292.435 121.211,293.933 117.528 C 294.007 117.348,294.245 117.200,294.463 117.200 C 294.977 117.200,299.200 113.906,299.200 113.505 C 299.200 113.337,299.384 113.200,299.608 113.200 C 300.175 113.200,305.600 107.852,305.600 107.294 C 305.600 107.044,305.863 106.692,306.185 106.512 C 306.700 106.224,308.612 103.815,310.400 101.202 C 310.730 100.720,311.315 99.955,311.700 99.501 C 312.085 99.048,312.400 98.435,312.400 98.139 C 312.400 97.842,312.541 97.600,312.714 97.600 C 312.887 97.600,313.562 96.565,314.214 95.300 C 314.866 94.035,315.511 92.910,315.646 92.800 C 315.781 92.690,316.031 92.150,316.200 91.600 C 316.369 91.050,316.631 90.510,316.781 90.400 C 317.188 90.103,318.713 86.764,319.020 85.500 C 319.167 84.895,319.447 84.400,319.643 84.400 C 319.840 84.400,320.000 84.120,320.000 83.778 C 320.000 83.436,320.373 82.311,320.829 81.278 C 321.285 80.245,321.896 78.860,322.188 78.200 C 322.479 77.540,322.842 76.235,322.994 75.300 C 323.146 74.365,323.414 73.600,323.589 73.600 C 323.764 73.600,324.032 72.610,324.183 71.400 C 324.334 70.190,324.604 69.200,324.783 69.200 C 324.963 69.200,325.235 68.364,325.388 67.341 C 325.541 66.319,325.818 65.194,326.003 64.841 C 326.811 63.304,328.496 54.316,328.147 53.407 C 328.029 53.098,327.197 52.462,326.299 51.994 C 325.401 51.526,322.433 49.538,319.703 47.577 C 303.175 35.702,292.350 31.551,284.441 34.055 M358.310 162.010 C 357.051 162.207,355.460 162.659,354.774 163.013 C 354.089 163.368,353.264 163.557,352.942 163.433 C 352.620 163.310,352.142 163.393,351.879 163.618 C 351.615 163.844,350.770 164.476,350.000 165.023 C 348.339 166.204,342.800 171.561,342.800 171.987 C 342.800 172.150,342.345 172.804,341.789 173.442 C 338.212 177.539,337.988 179.399,340.361 185.352 L 340.819 186.503 342.366 184.343 C 343.743 182.421,344.448 181.909,348.766 179.699 C 370.481 168.585,375.481 159.320,358.310 162.010 M378.686 163.300 C 378.586 163.575,378.778 164.115,379.113 164.499 C 379.448 164.883,379.749 165.977,379.781 166.930 C 379.846 168.857,383.781 176.539,384.569 176.277 C 386.077 175.776,385.584 167.298,383.928 165.241 C 382.225 163.127,379.159 161.992,378.686 163.300 M86.485 173.291 C 83.297 177.464,82.805 178.311,83.014 179.262 C 83.210 180.154,82.777 181.151,80.791 184.383 C 76.802 190.874,75.761 195.029,77.565 197.256 C 78.595 198.526,81.878 198.532,84.194 197.269 C 85.071 196.791,85.971 196.395,86.194 196.388 C 86.831 196.370,89.519 192.443,90.275 190.425 C 90.651 189.421,91.081 188.510,91.229 188.400 C 91.378 188.290,91.633 187.570,91.796 186.800 C 91.959 186.030,92.238 185.218,92.416 184.996 C 92.956 184.320,94.487 175.603,94.239 174.614 C 94.112 174.106,93.331 172.782,92.504 171.671 C 91.677 170.561,90.820 169.376,90.600 169.039 C 90.278 168.547,89.475 169.377,86.485 173.291 M146.400 202.733 C 146.730 202.936,147.450 203.224,148.000 203.371 C 148.695 203.557,148.817 203.525,148.400 203.267 C 148.070 203.064,147.350 202.776,146.800 202.629 C 146.105 202.443,145.983 202.475,146.400 202.733 M149.600 203.933 C 149.930 204.136,150.650 204.424,151.200 204.571 C 151.895 204.757,152.017 204.725,151.600 204.467 C 151.270 204.264,150.550 203.976,150.000 203.829 C 149.305 203.643,149.183 203.675,149.600 203.933 M153.200 205.276 C 156.712 206.961,160.948 208.785,161.070 208.663 C 161.253 208.481,154.531 205.398,153.200 205.054 L 152.200 204.796 153.200 205.276 M360.400 205.314 C 360.400 205.827,359.879 205.991,357.900 206.104 L 355.400 206.246 357.913 206.323 C 360.309 206.396,361.512 205.778,360.649 204.916 C 360.512 204.779,360.400 204.958,360.400 205.314 M162.176 209.413 C 162.604 209.736,163.144 209.994,163.376 209.987 C 163.609 209.980,163.451 209.710,163.024 209.387 C 162.596 209.064,162.056 208.806,161.824 208.813 C 161.591 208.820,161.749 209.090,162.176 209.413 M170.000 213.200 C 173.410 214.937,176.380 216.358,176.600 216.358 C 176.820 216.358,174.210 214.937,170.800 213.200 C 167.390 211.463,164.420 210.042,164.200 210.042 C 163.980 210.042,166.590 211.463,170.000 213.200 M375.314 216.200 C 375.317 217.300,375.395 217.703,375.487 217.095 C 375.579 216.486,375.577 215.586,375.482 215.095 C 375.387 214.603,375.311 215.100,375.314 216.200 M180.000 218.000 C 181.210 218.639,182.380 219.162,182.600 219.162 C 182.820 219.162,182.010 218.639,180.800 218.000 C 179.590 217.361,178.420 216.838,178.200 216.838 C 177.980 216.838,178.790 217.361,180.000 218.000 M348.200 219.600 C 349.059 220.480,349.852 221.200,349.962 221.200 C 350.072 221.200,349.459 220.480,348.600 219.600 C 347.741 218.720,346.948 218.000,346.838 218.000 C 346.728 218.000,347.341 218.720,348.200 219.600 M185.200 220.400 C 186.410 221.039,187.580 221.562,187.800 221.562 C 188.020 221.562,187.210 221.039,186.000 220.400 C 184.790 219.761,183.620 219.238,183.400 219.238 C 183.180 219.238,183.990 219.761,185.200 220.400 M190.000 222.600 C 190.550 222.914,191.180 223.172,191.400 223.172 C 191.620 223.172,191.350 222.914,190.800 222.600 C 190.250 222.286,189.620 222.028,189.400 222.028 C 189.180 222.028,189.450 222.286,190.000 222.600 M192.568 223.628 C 194.283 224.718,204.957 229.197,205.749 229.159 C 206.377 229.129,206.286 229.037,205.400 228.807 C 204.740 228.636,201.680 227.381,198.600 226.018 C 192.512 223.324,191.392 222.880,192.568 223.628 M37.375 228.100 L 36.200 229.400 37.500 228.225 C 38.712 227.130,38.984 226.800,38.675 226.800 C 38.606 226.800,38.021 227.385,37.375 228.100 M34.893 232.800 C 34.893 233.570,34.975 233.885,35.076 233.500 C 35.176 233.115,35.176 232.485,35.076 232.100 C 34.975 231.715,34.893 232.030,34.893 232.800 M375.709 233.600 C 375.709 234.590,375.787 234.995,375.882 234.500 C 375.978 234.005,375.978 233.195,375.882 232.700 C 375.787 232.205,375.709 232.610,375.709 233.600 M38.000 239.325 C 38.000 239.394,38.585 239.979,39.300 240.625 L 40.600 241.800 39.425 240.500 C 38.330 239.288,38.000 239.016,38.000 239.325 M66.909 256.000 C 66.909 256.990,66.987 257.395,67.082 256.900 C 67.178 256.405,67.178 255.595,67.082 255.100 C 66.987 254.605,66.909 255.010,66.909 256.000 M32.783 260.900 C 33.764 261.945,34.619 262.800,34.683 262.800 C 34.984 262.800,34.666 262.441,32.900 260.783 L 31.000 259.000 32.783 260.900 M62.575 265.300 L 61.400 266.600 62.700 265.425 C 63.415 264.779,64.000 264.194,64.000 264.125 C 64.000 263.816,63.670 264.088,62.575 265.300 " stroke="none" fill="#f2bb8b" fill-rule="evenodd"></path><path id="path4" d="M91.613 141.851 C 91.593 142.563,92.558 143.178,94.038 143.396 L 95.400 143.597 94.021 143.167 C 93.262 142.930,92.413 142.435,92.133 142.068 C 91.854 141.701,91.620 141.603,91.613 141.851 M99.400 144.752 C 101.581 145.754,102.392 146.778,102.812 149.062 L 103.169 151.000 103.031 149.075 C 102.852 146.590,100.419 143.973,98.320 144.009 C 98.034 144.014,98.520 144.348,99.400 144.752 M101.565 153.461 C 100.996 154.637,100.650 155.600,100.797 155.600 C 101.124 155.600,103.002 151.658,102.768 151.462 C 102.676 151.384,102.134 152.284,101.565 153.461 M97.018 159.900 C 95.330 162.045,94.557 163.133,95.301 162.318 C 97.034 160.420,100.510 156.000,100.270 156.000 C 100.170 156.000,98.706 157.755,97.018 159.900 M92.034 166.052 C 91.135 167.181,90.405 168.306,90.412 168.552 C 90.419 168.799,90.629 168.640,90.879 168.200 C 91.129 167.760,91.955 166.635,92.715 165.700 C 93.475 164.765,94.000 164.000,93.882 164.000 C 93.764 164.000,92.933 164.924,92.034 166.052 M91.159 169.800 C 91.396 170.240,92.058 171.140,92.630 171.800 C 93.203 172.460,93.477 172.640,93.241 172.200 C 93.004 171.760,92.342 170.860,91.770 170.200 C 91.197 169.540,90.923 169.360,91.159 169.800 M338.501 179.400 C 338.505 180.280,338.587 180.593,338.683 180.095 C 338.779 179.598,338.775 178.878,338.675 178.495 C 338.575 178.113,338.496 178.520,338.501 179.400 M339.916 187.513 L 339.232 189.000 340.016 188.056 C 340.447 187.536,340.800 186.861,340.800 186.556 C 340.800 185.733,340.670 185.873,339.916 187.513 M336.681 192.700 C 334.484 196.249,333.947 197.200,334.137 197.200 C 334.249 197.200,335.160 195.850,336.161 194.200 C 337.163 192.550,337.899 191.200,337.796 191.200 C 337.694 191.200,337.192 191.875,336.681 192.700 M331.800 200.800 C 331.459 201.460,331.269 202.000,331.379 202.000 C 331.489 202.000,331.859 201.460,332.200 200.800 C 332.541 200.140,332.731 199.600,332.621 199.600 C 332.511 199.600,332.141 200.140,331.800 200.800 M361.295 202.969 C 361.158 203.191,360.943 204.009,360.817 204.786 L 360.589 206.200 356.994 206.440 C 344.994 207.239,342.430 215.830,352.195 222.519 C 360.212 228.010,359.825 231.442,351.495 228.731 C 349.678 228.140,348.657 227.983,348.386 228.254 C 347.881 228.759,345.621 237.039,345.609 238.432 C 345.595 240.072,351.429 243.684,355.556 244.590 L 356.844 244.873 356.722 247.526 L 356.600 250.178 359.800 250.638 C 363.633 251.189,363.490 251.251,363.811 248.891 C 364.227 245.821,364.318 245.690,366.519 244.986 C 373.319 242.812,376.994 236.544,375.125 230.308 C 374.650 228.722,374.153 228.169,368.500 222.948 C 364.272 219.042,364.810 218.474,370.136 221.216 C 374.874 223.656,374.837 223.702,375.423 214.675 C 375.759 209.515,375.585 209.327,368.900 207.607 L 367.200 207.169 367.200 205.258 L 367.200 203.348 364.372 202.957 C 362.484 202.696,361.462 202.700,361.295 202.969 M326.672 210.619 C 325.732 212.589,325.864 212.924,326.847 211.062 C 327.293 210.216,327.587 209.454,327.501 209.367 C 327.414 209.281,327.041 209.844,326.672 210.619 M324.925 214.432 C 324.450 215.300,324.229 215.906,324.434 215.779 C 324.877 215.505,326.118 213.184,325.924 212.991 C 325.850 212.916,325.400 213.565,324.925 214.432 M53.830 221.668 C 53.737 221.961,53.453 222.875,53.199 223.700 C 52.739 225.195,52.733 225.199,51.069 224.900 C 46.088 224.005,40.998 224.981,38.451 227.320 C 33.118 232.215,34.246 236.401,42.777 243.381 C 49.537 248.911,48.099 252.103,40.336 248.800 C 35.866 246.898,36.116 246.734,33.469 253.300 L 31.172 259.000 33.786 261.458 C 35.536 263.103,37.559 264.483,39.900 265.627 C 41.825 266.569,43.469 267.391,43.553 267.455 C 43.637 267.520,43.421 268.703,43.072 270.086 C 42.306 273.127,42.224 273.036,46.737 274.184 C 51.003 275.270,51.325 275.119,51.371 272.012 C 51.387 270.949,51.532 270.286,51.694 270.539 C 51.885 270.839,51.990 270.764,51.994 270.324 C 52.001 269.488,52.484 269.175,54.125 268.940 C 63.065 267.665,68.599 260.298,66.323 252.702 C 65.992 251.595,64.656 249.845,61.935 246.950 C 55.561 240.172,55.774 238.735,62.456 243.439 C 66.159 246.047,68.049 245.434,67.418 241.831 C 67.261 240.935,67.294 240.817,67.541 241.398 C 67.939 242.336,69.840 232.802,69.455 231.798 C 69.099 230.871,65.766 228.920,62.920 227.973 L 60.353 227.119 60.619 224.983 L 60.886 222.847 58.743 222.251 C 54.973 221.203,54.014 221.089,53.830 221.668 M66.282 256.900 C 66.187 257.395,66.109 256.990,66.109 256.000 C 66.109 255.010,66.187 254.605,66.282 255.100 C 66.378 255.595,66.378 256.405,66.282 256.900 " stroke="none" fill="#f3d48f" fill-rule="evenodd"></path></g></svg>